<?xml version="1.0" encoding="us-ascii" standalone="no"?><svg xmlns="http://www.w3.org/2000/svg" xmlns:xlink="http://www.w3.org/1999/xlink" contentStyleType="text/css" height="1638px" preserveAspectRatio="none" style="width:794px;height:1638px;background:#FFFFFF;" version="1.1" viewBox="0 0 794 1638" width="794px" zoomAndPan="magnify"><defs/><g><!--cluster fonctionnalit?s--><g id="cluster_fonctionnalit&#233;s"><rect fill="none" height="1226" rx="2.5" ry="2.5" style="stroke:#181818;stroke-width:1.0;" width="707" x="81" y="189.74"/><text fill="#000000" font-family="sans-serif" font-size="14" font-weight="bold" lengthAdjust="spacing" textLength="117" x="376" y="204.7351">fonctionnalit&#233;s</text></g><g id="elem_indf"><ellipse cx="703.8807" cy="240.7161" fill="#F1F1F1" rx="67.8807" ry="15.9761" style="stroke:#181818;stroke-width:0.5;"/><text fill="#000000" font-family="sans-serif" font-size="14" lengthAdjust="spacing" textLength="87" x="657.3807" y="244.4637">identification</text></g><g id="elem_connecter"><ellipse cx="336.4096" cy="239.6219" fill="#F1F1F1" rx="62.4096" ry="14.8819" style="stroke:#181818;stroke-width:0.5;"/><text fill="#000000" font-family="sans-serif" font-size="14" lengthAdjust="spacing" textLength="71" x="297.9096" y="243.3695">connecter</text></g><g id="elem_inscrire"><ellipse cx="336.3761" cy="304.9044" fill="#F1F1F1" rx="47.3761" ry="14.6644" style="stroke:#181818;stroke-width:0.5;"/><text fill="#000000" font-family="sans-serif" font-size="14" lengthAdjust="spacing" textLength="50" x="308.3761" y="308.6519">inscrire</text></g><g id="elem_pf"><ellipse cx="703.8338" cy="370.7687" fill="#F1F1F1" rx="34.8338" ry="14.5287" style="stroke:#181818;stroke-width:0.5;"/><text fill="#000000" font-family="sans-serif" font-size="14" lengthAdjust="spacing" textLength="33" x="686.6671" y="373.8568">Profil</text></g><g id="elem_voiePf"><ellipse cx="336.464" cy="370.9328" fill="#F1F1F1" rx="68.964" ry="16.1928" style="stroke:#181818;stroke-width:0.5;"/><text fill="#000000" font-family="sans-serif" font-size="14" lengthAdjust="spacing" textLength="90" x="288.464" y="374.6804">voir le  Profile</text></g><g id="elem_modiPf"><ellipse cx="336.2754" cy="439.7951" fill="#F1F1F1" rx="75.7754" ry="17.5551" style="stroke:#181818;stroke-width:0.5;"/><text fill="#000000" font-family="sans-serif" font-size="14" lengthAdjust="spacing" textLength="108" x="279.2754" y="443.5426">modifier le Profil</text></g><g id="elem_affServices"><ellipse cx="336.3975" cy="538.7195" fill="#F1F1F1" rx="217.8975" ry="45.9795" style="stroke:#181818;stroke-width:0.5;"/><text fill="#000000" font-family="sans-serif" font-size="14" lengthAdjust="spacing" textLength="410" x="131.3975" y="541.5662">Pr&#233;sentation des services et des fonctionnalit&#233;s principales</text></g><g id="elem_donnees"><ellipse cx="703.8265" cy="822.4966" fill="#F1F1F1" rx="57.8265" ry="14.7566" style="stroke:#181818;stroke-width:0.5;"/><text fill="#000000" font-family="sans-serif" font-size="14" lengthAdjust="spacing" textLength="64" x="668.8265" y="826.2441">Donn&#233;es</text></g><g id="elem_affDonne"><ellipse cx="336.3631" cy="822.6126" fill="#F1F1F1" rx="127.3631" ry="27.8726" style="stroke:#181818;stroke-width:0.5;"/><text fill="#000000" font-family="sans-serif" font-size="14" lengthAdjust="spacing" textLength="223" x="224.8631" y="825.4593">affichage des donn&#233;es de sant&#233;</text></g><g id="elem_grapheDonn"><ellipse cx="336.5353" cy="936.5471" fill="#F1F1F1" rx="239.5353" ry="50.3071" style="stroke:#181818;stroke-width:0.5;"/><text fill="#000000" font-family="sans-serif" font-size="14" lengthAdjust="spacing" textLength="450" x="109.5353" y="939.3937">Graphiques pour visualiser les tendances des donn&#233;es de sant&#233;.</text></g><g id="elem_histoDonn"><ellipse cx="336.5937" cy="645.8587" fill="#F1F1F1" rx="116.0937" ry="25.6187" style="stroke:#181818;stroke-width:0.5;"/><text fill="#000000" font-family="sans-serif" font-size="14" lengthAdjust="spacing" textLength="199" x="237.0937" y="648.7054">voir l'historique des donn&#233;es</text></g><g id="elem_filterDonn"><ellipse cx="336.2717" cy="732.7943" fill="#F1F1F1" rx="120.7717" ry="26.5543" style="stroke:#181818;stroke-width:0.5;"/><text fill="#000000" font-family="sans-serif" font-size="14" lengthAdjust="spacing" textLength="209" x="231.7717" y="735.641">filtrer l'historique des donn&#233;es</text></g><g id="elem_connBl"><ellipse cx="336.7488" cy="1057.8898" fill="#F1F1F1" rx="163.7488" ry="35.1498" style="stroke:#181818;stroke-width:0.5;"/><text fill="#000000" font-family="sans-serif" font-size="14" lengthAdjust="spacing" textLength="299" x="187.2488" y="1060.7364">Connexion d'une appareille avec  Bluetooth</text></g><g id="elem_notif"><ellipse cx="703.8142" cy="1318.5028" fill="#F1F1F1" rx="66.8142" ry="15.7628" style="stroke:#181818;stroke-width:0.5;"/><text fill="#000000" font-family="sans-serif" font-size="14" lengthAdjust="spacing" textLength="84" x="658.8142" y="1322.2504">Notifications</text></g><g id="elem_notifVal"><ellipse cx="336.3556" cy="1165.9111" fill="#F1F1F1" rx="176.3556" ry="37.6711" style="stroke:#181818;stroke-width:0.5;"/><text fill="#000000" font-family="sans-serif" font-size="14" lengthAdjust="spacing" textLength="325" x="173.8556" y="1168.7578">Notifications pour les valeurs de sant&#233; critiques</text></g><g id="elem_rappel"><ellipse cx="336.6004" cy="1269.5601" fill="#F1F1F1" rx="142.1004" ry="30.8201" style="stroke:#181818;stroke-width:0.5;"/><text fill="#000000" font-family="sans-serif" font-size="14" lengthAdjust="spacing" textLength="254" x="209.6004" y="1272.4068">Rappels pour les mesures r&#233;guli&#232;res</text></g><g id="elem_notifPerso"><ellipse cx="336.4506" cy="1367.7301" fill="#F1F1F1" rx="145.4506" ry="31.4901" style="stroke:#181818;stroke-width:0.5;"/><text fill="#000000" font-family="sans-serif" font-size="14" lengthAdjust="spacing" textLength="261" x="205.9506" y="1370.5768">configurer des alertes personnalis&#233;es</text></g><!--entity user--><g id="elem_user"><ellipse cx="21.5" cy="769.24" fill="#F1F1F1" rx="8" ry="8" style="stroke:#181818;stroke-width:0.5;"/><path d="M21.5,777.24 L21.5,804.24 M8.5,785.24 L34.5,785.24 M21.5,804.24 L8.5,819.24 M21.5,804.24 L34.5,819.24 " fill="none" style="stroke:#181818;stroke-width:0.5;"/><text fill="#000000" font-family="sans-serif" font-size="14" lengthAdjust="spacing" textLength="31" x="6" y="833.7351">user</text></g><!--reverse link connecter to indf--><g id="link_connecter_indf"><path d="M417.0899,239.9594 C482.6999,240.1394 568.23,240.37 635.89,240.56 " fill="none" id="connecter-backto-indf" style="stroke:#181818;stroke-width:1.0;"/><polygon fill="none" points="399.09,239.91,417.0735,245.9594,417.1064,233.9594,399.09,239.91" style="stroke:#181818;stroke-width:1.0;"/></g><!--reverse link inscrire to indf--><g id="link_inscrire_indf"><path d="M399.564,297.9599 C447.604,292.4799 508.66,284.58 576,271.74 C603.64,266.47 634.31,259.03 658.57,252.76 " fill="none" id="inscrire-backto-indf" style="stroke:#181818;stroke-width:1.0;"/><polygon fill="none" points="381.68,300,400.244,303.9213,398.884,291.9986,381.68,300" style="stroke:#181818;stroke-width:1.0;"/></g><!--reverse link voiePf to pf--><g id="link_voiePf_pf"><path d="M423.82,370.74 C501.92,370.74 608.68,370.74 668.64,370.74 " fill="none" id="voiePf-backto-pf" style="stroke:#181818;stroke-width:1.0;"/><polygon fill="none" points="405.82,370.74,423.82,376.74,423.82,364.74,405.82,370.74" style="stroke:#181818;stroke-width:1.0;"/></g><!--reverse link modiPf to pf--><g id="link_modiPf_pf"><path d="M421.7253,429.2549 C469.7653,422.9149 518.26,415.57 576,403.74 C610.37,396.7 649.35,386.19 674.95,378.93 " fill="none" id="modiPf-backto-pf" style="stroke:#181818;stroke-width:1.0;"/><polygon fill="none" points="403.88,431.61,422.5103,435.2033,420.9402,423.3065,403.88,431.61" style="stroke:#181818;stroke-width:1.0;"/></g><!--reverse link affDonne to donnees--><g id="link_affDonne_donnees"><path d="M482.05,822.74 C543.93,822.74 597.33,822.74 645.85,822.74 " fill="none" id="affDonne-backto-donnees" style="stroke:#181818;stroke-width:1.0;"/><polygon fill="none" points="464.05,822.74,482.05,828.74,482.05,816.74,464.05,822.74" style="stroke:#181818;stroke-width:1.0;"/></g><!--reverse link grapheDonn to donnees--><g id="link_grapheDonn_donnees"><path d="M498.967,891.4598 C530.167,882.3398 545.63,877.51 576,867.74 C608.18,857.4 644.49,844.39 670.02,835.03 " fill="none" id="grapheDonn-backto-donnees" style="stroke:#181818;stroke-width:1.0;"/><polygon fill="none" points="481.69,896.51,500.6504,897.2188,497.2836,885.7008,481.69,896.51" style="stroke:#181818;stroke-width:1.0;"/></g><!--reverse link histoDonn to donnees--><g id="link_histoDonn_donnees"><path d="M467.611,653.7709 C509.201,659.5109 537.69,668.04 576,688.74 C630.43,718.14 674.97,779.38 693.6,807.73 " fill="none" id="histoDonn-backto-donnees" style="stroke:#181818;stroke-width:1.0;"/><polygon fill="none" points="449.78,651.31,466.7907,659.7146,468.4313,647.8273,449.78,651.31" style="stroke:#181818;stroke-width:1.0;"/></g><!--reverse link filterDonn to donnees--><g id="link_filterDonn_donnees"><path d="M455.2879,750.422 C498.2679,757.692 531.1,764.56 576,776.74 C609.61,785.86 646.96,799.88 672.4,810.04 " fill="none" id="filterDonn-backto-donnees" style="stroke:#181818;stroke-width:1.0;"/><polygon fill="none" points="437.54,747.42,454.2872,756.338,456.2886,744.5061,437.54,747.42" style="stroke:#181818;stroke-width:1.0;"/></g><!--reverse link notifVal to notif--><g id="link_notifVal_notif"><path d="M496.7887,1192.1598 C529.4687,1200.1198 545.94,1206.52 576,1220.74 C620.81,1241.94 664.71,1281.04 687.29,1302.9 " fill="none" id="notifVal-backto-notif" style="stroke:#181818;stroke-width:1.0;"/><polygon fill="none" points="479.3,1187.9,495.3688,1197.9894,498.2086,1186.3302,479.3,1187.9" style="stroke:#181818;stroke-width:1.0;"/></g><!--reverse link rappel to notif--><g id="link_rappel_notif"><path d="M475.7804,1288.2816 C538.5904,1296.7016 594.73,1304.23 644.84,1310.95 " fill="none" id="rappel-backto-notif" style="stroke:#181818;stroke-width:1.0;"/><polygon fill="none" points="457.94,1285.89,474.9832,1294.2284,476.5776,1282.3348,457.94,1285.89" style="stroke:#181818;stroke-width:1.0;"/></g><!--reverse link notifPerso to notif--><g id="link_notifPerso_notif"><path d="M478.5705,1348.8291 C540.9505,1340.4691 595.88,1333.1 645.26,1326.48 " fill="none" id="notifPerso-backto-notif" style="stroke:#181818;stroke-width:1.0;"/><polygon fill="none" points="460.73,1351.22,479.3675,1354.7759,477.7735,1342.8822,460.73,1351.22" style="stroke:#181818;stroke-width:1.0;"/></g><!--link user to indf--><g id="link_user_indf"><path d="M22.57,760.6 C23.19,628.85 28.63,198.75 73,157.74 C237.17,6 361.74,93.94 576,157.74 C620.18,170.9 658.8001,200.8813 681.6701,221.0513 " fill="none" id="user-to-indf" style="stroke:#181818;stroke-width:1.0;"/><polygon fill="#181818" points="686.17,225.02,682.0659,216.067,682.42,221.7128,676.7743,222.0669,686.17,225.02" style="stroke:#181818;stroke-width:1.0;"/></g><!--link user to pf--><g id="link_user_pf"><path d="M22.83,760.5 C24.32,635.4 32.21,244.2 73,206.74 C155.33,131.14 475.64,157.53 576,206.74 C592.85,215.01 663.0553,313.6873 689.8053,351.8373 " fill="none" id="user-to-pf" style="stroke:#181818;stroke-width:1.0;"/><polygon fill="#181818" points="693.25,356.75,691.3581,347.0846,690.3794,352.6561,684.8079,351.6774,693.25,356.75" style="stroke:#181818;stroke-width:1.0;"/></g><!--link user to affServices--><g id="link_user_affServices"><path d="M27.64,760.51 C35.2,709.92 50.87,624.59 73,602.74 C92.53,583.47 111.2314,571.7916 137.1214,561.9516 " fill="none" id="user-to-affServices" style="stroke:#181818;stroke-width:1.0;"/><polygon fill="#181818" points="142.73,559.82,132.896,559.2784,138.0562,561.5964,135.7382,566.7565,142.73,559.82" style="stroke:#181818;stroke-width:1.0;"/></g><!--link user to donnees--><g id="link_user_donnees"><path d="M22.69,836.85 C23.71,965.42 30.3,1377.39 73,1416.74 C155.19,1492.49 489.09,1487.03 576,1416.74 C623.3,1378.49 687.6793,932.5322 700.0893,843.7622 " fill="none" id="user-to-donnees" style="stroke:#181818;stroke-width:1.0;"/><polygon fill="#181818" points="700.92,837.82,695.7124,846.1795,700.2277,842.7718,703.6354,847.2871,700.92,837.82" style="stroke:#181818;stroke-width:1.0;"/></g><!--link user to connBl--><g id="link_user_connBl"><path d="M26.95,836.8 C33.92,889.79 49.16,981.86 73,1004.74 C100.26,1030.9 130.7902,1044.5005 167.7802,1052.6405 " fill="none" id="user-to-connBl" style="stroke:#181818;stroke-width:1.0;"/><polygon fill="#181818" points="173.64,1053.93,165.71,1048.0892,168.7568,1052.8554,163.9906,1055.9023,173.64,1053.93" style="stroke:#181818;stroke-width:1.0;"/></g><!--link user to notif--><g id="link_user_notif"><path d="M22.38,836.87 C22.33,973.92 25.71,1435.83 73,1479.74 C236.82,1631.86 374.84,1577.27 576,1479.74 C639.59,1448.91 678.4678,1374.566 693.8278,1340.266 " fill="none" id="user-to-notif" style="stroke:#181818;stroke-width:1.0;"/><polygon fill="#181818" points="696.28,1334.79,688.951,1341.3692,694.2365,1339.3533,696.2523,1344.6388,696.28,1334.79" style="stroke:#181818;stroke-width:1.0;"/></g><!--SRC=[XLHBRjim4Dtp50Dll79FK7IH5cXNWT42sHFKI2R0a2e_Ge6szsdEuOjrPYHHeX8WtjZp_ERDdmxx33b0jCCjGsSZcco3LqgR72AKX16KKWnhFpY4FdXXUErilhya-As0FaGqEY7O3dsslJMQIQ0JMD_rq70CUPCUnjRJ9nCflchGQmozTS12uq7cD0KRWL9QI7XY5e5uxOdMSfz3HrcXy6Uwi1acTXlpT8rK6DKnrz1X0ch3P0tzm2psgowCqNfZH-qmYR3k-n-hpq7z2xdTNnPUnxqWpY5TShVcfWUKQDtYGGOaxIdW6eEryE3xDUhnPdyMue-XH9XiAfHcak8JPFITzaRKtfB-028-i0go_bjDFzzieltWA8sCkCf_x7b8Z9gU8xxdpIoC4hXr_yor_fA9d0jLhSTHHxIE9gedD00Fhc0E8Tz4XxVimSqfd3SLyuxAJcHLUNnwfJ9Wghkn5IDTh05g5j-OSDY2nx1TIMAYP-3Gi9Oam-G9JhHb9Uv61dGuMH8uLQadxLgnxrGfkftCCwOIwPkMVIZEtlz5zfUget0FsL0flHqAJv3BfYHYvXt3cEP3I7M6ai6L_-37uwy2LMyUFlwvNEHHKEl5xo2bbliLQEpLSg2hgUhE2x9SZzgMjSMtJMpWRSLQN9tNUGiyRz02paFSushjyuoAfPRExP1TBtQeKlAqNYwVbWUockFUQ9wHYgxvLc39gDeIupy0]--></g></svg>